<?xml version="1.0" standalone="no"?>
<!DOCTYPE svg PUBLIC "-//W3C//DTD SVG 20010904//EN"
 "http://www.w3.org/TR/2001/REC-SVG-20010904/DTD/svg10.dtd">
<svg version="1.0" xmlns="http://www.w3.org/2000/svg"
 width="1633.000000pt" height="844.000000pt" viewBox="0 0 1633.000000 844.000000"
 preserveAspectRatio="xMidYMid meet">

<g transform="translate(0.000000,844.000000) scale(0.100000,-0.100000)"
fill="#000000" stroke="none">
<path d="M350 6785 l0 -1305 7818 2 7817 3 3 1303 2 1302 -7820 0 -7820 0 0
-1305z"/>
<path d="M350 4220 l0 -750 423 0 c459 0 504 4 614 56 82 39 173 132 203 209
20 50 24 79 24 170 1 101 -2 115 -28 173 -35 75 -122 161 -190 187 l-45 17 49
25 c112 55 166 161 158 304 -10 175 -123 300 -310 344 -50 12 -147 15 -480 15
l-418 0 0 -750z m777 433 c70 -33 96 -131 53 -201 -37 -61 -80 -72 -282 -72
l-178 0 0 145 0 145 186 0 c153 0 192 -3 221 -17z m4 -544 c148 -50 157 -255
14 -320 -34 -16 -67 -19 -232 -19 l-193 0 0 175 0 175 189 0 c113 0 201 -4
222 -11z"/>
<path d="M1660 4220 l0 -750 180 0 180 0 0 750 0 750 -180 0 -180 0 0 -750z"/>
<path d="M4260 4220 l0 -750 170 0 170 0 0 161 0 162 46 53 c25 30 49 54 52
54 4 0 63 -97 132 -215 l125 -214 203 -1 202 0 -23 38 c-13 20 -108 171 -211
336 l-188 298 44 47 c170 179 328 349 328 355 0 3 -88 6 -195 6 l-194 0 -158
-179 -158 -179 -3 389 -2 389 -170 0 -170 0 0 -750z"/>
<path d="M5781 4954 c-122 -33 -219 -104 -269 -199 -24 -45 -27 -61 -27 -150
0 -89 3 -106 28 -157 15 -31 47 -79 71 -105 l44 -49 -66 -34 c-319 -169 -322
-574 -6 -733 147 -74 380 -86 538 -27 47 18 99 49 192 115 10 7 30 -7 82 -58
l68 -67 219 0 220 1 -183 177 c-100 97 -183 180 -182 184 0 4 70 98 155 207
85 110 155 203 155 206 0 3 -87 5 -192 5 l-193 0 -74 -110 c-41 -61 -75 -110
-76 -110 0 0 -40 40 -89 89 l-88 88 59 34 c78 44 169 133 201 194 37 72 43
197 13 276 -41 108 -141 188 -276 224 -75 19 -251 19 -324 -1z m270 -272 c65
-73 41 -165 -61 -232 -70 -44 -81 -43 -124 13 -54 71 -68 135 -41 188 26 49
70 71 139 66 51 -3 63 -8 87 -35z m24 -855 c-10 -23 -91 -75 -139 -88 -51 -14
-128 -5 -168 18 -17 10 -45 35 -62 56 -26 33 -31 47 -31 95 0 75 26 118 95
160 l55 32 128 -128 c94 -94 126 -132 122 -145z"/>
<path d="M6960 4220 l0 -750 170 0 170 0 1 508 0 507 39 -150 c21 -82 83 -310
137 -505 l99 -355 156 -3 156 -2 16 52 c39 137 218 784 240 868 l24 95 1 -507
1 -508 170 0 170 0 0 750 0 750 -253 0 -253 0 -102 -362 c-56 -200 -116 -423
-134 -497 l-32 -134 -42 164 c-23 90 -83 311 -133 491 -50 180 -91 330 -91
333 0 3 -115 5 -255 5 l-255 0 0 -750z"/>
<path d="M9690 4220 l0 -751 398 3 c383 4 399 5 467 27 189 62 311 163 390
324 66 133 89 250 82 427 -9 233 -71 392 -207 529 -79 80 -146 122 -260 162
-63 22 -78 23 -467 27 l-403 3 0 -751z m752 402 c147 -72 216 -225 205 -447
-9 -160 -52 -262 -138 -325 -67 -48 -124 -60 -291 -60 l-148 0 0 436 0 436
153 -3 c149 -4 154 -5 219 -37z"/>
<path d="M14470 4220 l0 -750 175 0 175 0 0 750 0 750 -175 0 -175 0 0 -750z"/>
<path d="M15640 4698 l0 -272 -35 42 c-48 56 -141 101 -225 108 -236 22 -435
-136 -496 -394 -11 -42 -16 -110 -16 -182 1 -198 53 -340 163 -445 100 -96
239 -139 370 -115 96 18 159 54 227 133 l32 38 0 -71 0 -70 165 0 165 0 0 750
0 750 -175 0 -175 0 0 -272z m-118 -404 c132 -67 172 -355 69 -499 -82 -113
-248 -113 -320 1 -41 63 -54 132 -49 246 3 77 9 104 32 151 15 32 42 68 60 82
57 44 143 51 208 19z"/>
<path d="M2485 4570 c-117 -19 -224 -69 -281 -133 -44 -48 -85 -135 -92 -193
l-5 -44 162 0 c141 0 161 2 161 16 0 67 77 124 168 124 95 0 142 -35 142 -106
0 -72 -37 -91 -235 -119 -251 -37 -354 -86 -413 -199 -24 -45 -27 -62 -27
-146 0 -84 3 -102 29 -153 57 -118 163 -172 336 -172 134 0 190 18 264 86 l54
50 16 -56 17 -55 169 0 c94 0 170 2 170 4 0 2 -7 17 -15 32 -12 24 -15 83 -15
334 0 455 -13 522 -116 620 -57 54 -109 81 -191 98 -75 17 -229 22 -298 12z
m265 -680 c0 -96 -14 -136 -65 -178 -67 -55 -193 -65 -250 -20 -37 29 -51 85
-32 130 21 50 50 66 189 104 66 18 122 35 126 38 3 3 11 6 19 6 10 0 13 -20
13 -80z"/>
<path d="M3571 4565 c-209 -39 -377 -200 -426 -406 -19 -81 -19 -226 0 -307
31 -129 123 -260 234 -331 157 -100 402 -114 577 -32 131 61 235 201 250 334
l7 57 -165 0 -164 0 -12 -42 c-26 -97 -82 -141 -178 -141 -69 0 -121 28 -161
86 -38 56 -53 121 -53 225 0 151 42 245 130 290 102 52 214 6 250 -103 l12
-35 165 0 166 0 -6 40 c-8 63 -62 166 -117 224 -115 122 -316 178 -509 141z"/>
<path d="M9001 4565 c-209 -39 -377 -200 -426 -406 -19 -81 -19 -226 0 -307
43 -181 176 -326 357 -386 204 -68 435 -25 573 105 69 65 123 170 132 252 l6
57 -165 0 -164 0 -12 -42 c-26 -97 -82 -141 -178 -141 -69 0 -121 28 -161 86
-38 56 -53 121 -53 225 0 151 42 245 130 290 102 52 214 6 250 -103 l12 -35
165 0 166 0 -6 39 c-3 22 -20 72 -37 110 -54 116 -160 204 -298 244 -78 24
-205 29 -291 12z"/>
<path d="M11532 4566 c-213 -41 -382 -196 -437 -402 -21 -79 -21 -232 0 -313
51 -197 199 -346 396 -397 78 -21 233 -23 309 -5 160 38 296 144 364 282 168
341 -5 744 -354 827 -79 19 -200 22 -278 8z m196 -251 c79 -34 126 -110 144
-234 21 -151 -22 -302 -102 -360 -81 -58 -191 -50 -261 20 -99 99 -108 392
-15 513 51 68 153 94 234 61z"/>
<path d="M12832 4565 c-78 -22 -111 -42 -174 -107 l-58 -59 0 76 0 75 -162 -2
-163 -3 -3 -537 -2 -538 174 0 175 0 3 343 c3 384 2 377 81 441 34 27 46 31
100 31 49 0 69 -5 95 -23 67 -48 67 -49 70 -439 l3 -353 174 0 175 0 0 368 c0
391 -6 457 -51 549 -33 68 -108 138 -176 163 -75 28 -190 35 -261 15z"/>
<path d="M13785 4570 c-108 -18 -191 -54 -262 -115 -49 -42 -100 -139 -109
-207 l-7 -48 160 0 161 0 5 28 c8 39 44 82 83 98 44 19 128 18 169 -1 61 -30
78 -111 31 -151 -33 -29 -66 -38 -233 -63 -263 -40 -367 -104 -410 -250 -19
-68 -13 -166 16 -233 54 -126 198 -197 376 -185 105 7 182 36 240 93 27 26 47
39 49 31 2 -6 9 -31 15 -54 l12 -43 169 0 c94 0 170 3 170 8 -1 4 -7 18 -15
32 -12 20 -14 87 -15 350 0 179 -4 353 -9 387 -24 165 -131 276 -298 312 -76
16 -229 21 -298 11z m265 -685 c0 -97 -11 -126 -64 -173 -68 -59 -204 -65
-258 -11 -23 22 -28 36 -28 76 0 85 26 105 190 148 58 15 112 31 120 36 35 20
40 11 40 -76z"/>
<path d="M350 1640 l0 -1300 7815 0 7815 0 0 1300 0 1300 -7815 0 -7815 0 0
-1300z"/>
</g>
</svg>
