<?xml version="1.0" encoding="UTF-8" standalone="no"?>
<svg
   xmlns:dc="http://purl.org/dc/elements/1.1/"
   xmlns:cc="http://creativecommons.org/ns#"
   xmlns:rdf="http://www.w3.org/1999/02/22-rdf-syntax-ns#"
   xmlns:svg="http://www.w3.org/2000/svg"
   xmlns="http://www.w3.org/2000/svg"
   id="svg8"
   version="1.1"
   viewBox="0 0 97.895821 38.563023"
   height="38.563023mm"
   width="97.895821mm">
  <defs
     id="defs2" />
  <metadata
     id="metadata5">
    <rdf:RDF>
      <cc:Work
         rdf:about="">
        <dc:format>image/svg+xml</dc:format>
        <dc:type
           rdf:resource="http://purl.org/dc/dcmitype/StillImage" />
        <dc:title></dc:title>
      </cc:Work>
    </rdf:RDF>
  </metadata>
  <g
     transform="translate(145.52083,-140.6974)"
     id="layer1">
    <g
       id="g4911">
      <path
         style="fill:#000001;fill-opacity:1;stroke:none;stroke-width:0.26458332px;stroke-linecap:butt;stroke-linejoin:miter;stroke-opacity:1"
         d="m -145.52083,156.77083 h 15.875 c 1.32291,0 1.32291,0 2.64583,-1.32291 l 13.75833,-13.75834 c 1.32292,-1.32291 2.91042,-1.32291 4.23334,0 l 11.641663,11.64167 c 0.529167,0.52917 1.058334,0.52917 1.5875,0 v 12.17083 c -0.529166,-0.52916 -1.058333,-0.52916 -1.5875,0 l -12.435413,12.43542 c -1.32292,1.32292 -1.32292,1.32292 -2.64584,1.32292 h -33.07291 v -7.9375 h 30.42708 c 1.32292,0 1.32292,0 2.64583,-1.32292 l 9.26042,-9.26042 c 0.52917,-0.52916 0.52917,-0.79375 0,-1.32291 l -7.14375,-7.14375 c -0.52917,-0.52917 -1.05833,-0.52917 -1.5875,0 l -11.1125,11.1125 c -1.32291,1.32291 -1.32291,1.32291 -2.64583,1.32291 h -19.84375 z"
         id="path818" />
      <path
         style="fill:#000001;fill-opacity:1;stroke:none;stroke-width:0.26458332px;stroke-linecap:butt;stroke-linejoin:miter;stroke-opacity:1"
         d="m -47.625007,156.77083 h -15.874996 c -1.32291,0 -1.32291,0 -2.64583,-1.32291 l -13.758331,-13.75834 c -1.32292,-1.32291 -2.91042,-1.32291 -4.233339,0 l -11.641664,11.64167 c -0.52917,0.52917 -1.05833,0.52917 -1.5875,0 v 12.17083 c 0.52917,-0.52916 1.05833,-0.52916 1.5875,0 l 12.435414,12.43543 c 1.322919,1.32291 1.322919,1.32291 2.645839,1.32291 h 33.072907 v -7.9375 h -30.427077 c -1.322919,0 -1.322919,0 -2.64583,-1.32292 l -9.260423,-9.26042 c -0.52917,-0.52916 -0.52917,-0.79375 0,-1.32291 l 7.143753,-7.14375 c 0.52917,-0.52917 1.058331,-0.52917 1.5875,0 l 11.112501,11.1125 c 1.32291,1.32291 1.32291,1.32291 2.64583,1.32291 h 19.843746 z"
         id="path818-5" />
    </g>
  </g>
</svg>
